<?xml version="1.0" encoding="utf-8"?>
<!-- Generator: Adobe Illustrator 21.1.0, SVG Export Plug-In . SVG Version: 6.00 Build 0)  -->
<svg version="1.1" xmlns="http://www.w3.org/2000/svg" xmlns:xlink="http://www.w3.org/1999/xlink" x="0px" y="0px"
	 viewBox="0 0 512 512" style="enable-background:new 0 0 512 512;" xml:space="preserve">
<style type="text/css">
	.st0{display:none;}
	.st1{display:inline;}
	.st2{fill:#236AB2;}
	.st3{display:inline;fill:#236AB2;}
</style>
<g id="Layer_1" class="st0">
	<g class="st1">
		<g>
			<path class="st2" d="M328.8,368.7c-5.4-3.2-10.9-6.5-16.4-9.7c1.3-11.1,1.3-22.3,0-33.3c5.5-3.2,11.1-6.5,16.4-9.7
				c9-5.4,12.8-16.9,8.7-26.6c0,0,0,0,0,0L325.8,261c-4-9.7-14.8-15.2-25-12.6c-6.1,1.5-12.3,3.1-18.5,4.8
				c-6.9-8.7-14.8-16.6-23.6-23.6c1.7-6.2,3.3-12.4,4.8-18.5c2.5-10.2-2.9-21-12.6-25l-28.4-11.8c-9.7-4-21.2-0.3-26.6,8.7
				c-3.2,5.4-6.5,10.9-9.7,16.4c-11.1-1.3-22.3-1.3-33.3,0c-3.2-5.6-6.5-11.1-9.7-16.4c-5.4-9-16.9-12.8-26.6-8.7l-28.4,11.8
				c-9.7,4-15.2,14.8-12.6,25c1.5,6.1,3.1,12.3,4.8,18.5c-8.7,6.9-16.6,14.8-23.6,23.6c-6.2-1.7-12.4-3.3-18.5-4.8
				c-10.2-2.5-21,2.9-25,12.6L1.6,289.5c-4,9.7-0.3,21.2,8.7,26.6c5.4,3.2,10.9,6.5,16.4,9.7c-1.3,11.1-1.3,22.3,0,33.3
				c-5.5,3.2-11.1,6.4-16.4,9.7c-9,5.4-12.8,16.9-8.7,26.6l11.8,28.4c4,9.7,14.8,15.2,25,12.6c6.1-1.5,12.3-3.1,18.5-4.8
				c6.9,8.7,14.8,16.6,23.6,23.6c-1.7,6.2-3.3,12.4-4.8,18.5c-2.5,10.2,2.9,21,12.6,25l28.4,11.8c2.6,1.1,5.4,1.6,8.1,1.6
				c7.4,0,14.5-3.8,18.5-10.4c3.2-5.3,6.5-10.9,9.7-16.4c11.1,1.3,22.3,1.3,33.3,0c3.2,5.5,6.4,11,9.7,16.4
				c5.4,9,16.9,12.8,26.6,8.7l28.4-11.8c9.7-4,15.2-14.8,12.6-25c-1.5-6-3.1-12.2-4.8-18.5c8.7-6.9,16.6-14.8,23.6-23.6
				c6.2,1.7,12.4,3.3,18.5,4.8c10.2,2.5,21-2.9,25-12.6l11.8-28.4C341.6,385.6,337.9,374.2,328.8,368.7z M305.1,413.8
				c-5.8-1.5-11.8-3-17.7-4.6c-8.4-2.3-17.2,0.7-22.5,7.5c-6.1,7.8-13.2,14.9-21,21c-6.8,5.3-9.7,14.1-7.5,22.5
				c1.6,6,3.1,11.9,4.6,17.7l-26.1,10.8c-3.1-5.2-6.2-10.5-9.3-15.8c-4.3-7.5-12.7-11.7-21.2-10.6c-9.8,1.2-19.8,1.2-29.7,0
				c-8.6-1.1-16.9,3.1-21.2,10.6c-3.1,5.3-6.2,10.6-9.3,15.8l-26.1-10.8c1.5-5.8,3-11.8,4.6-17.7c2.3-8.4-0.7-17.2-7.5-22.5
				c-7.8-6.1-14.9-13.1-21-21c-5.3-6.8-14.1-9.7-22.5-7.5c-5.9,1.6-11.9,3.1-17.7,4.6l-10.8-26.1c5.2-3.1,10.5-6.2,15.8-9.3
				c7.5-4.3,11.7-12.7,10.6-21.2c-1.2-9.8-1.2-19.8,0-29.7c1.1-8.6-3.1-16.9-10.6-21.2c-5.3-3.1-10.6-6.2-15.8-9.3L34.1,271
				c5.8,1.5,11.8,3,17.7,4.6c8.4,2.3,17.2-0.7,22.5-7.5c6.1-7.8,13.2-14.9,21-21c6.8-5.3,9.7-14.1,7.5-22.5
				c-1.6-5.9-3.1-11.9-4.6-17.7l26.1-10.8c3.1,5.1,6.2,10.4,9.3,15.8c4.3,7.5,12.7,11.7,21.2,10.6c9.8-1.2,19.8-1.2,29.7,0
				c8.6,1.1,16.9-3.1,21.2-10.6c3.1-5.3,6.2-10.6,9.3-15.8l26.1,10.8c-1.5,5.8-3,11.8-4.6,17.7c-2.3,8.4,0.7,17.2,7.5,22.5
				c7.8,6.1,14.9,13.1,21,21c5.3,6.8,14.1,9.7,22.5,7.5c5.9-1.6,11.9-3.1,17.7-4.6l10.8,26.1c-5.2,3.1-10.5,6.2-15.8,9.3
				c-7.5,4.3-11.7,12.7-10.6,21.2c1.2,9.8,1.2,19.8,0,29.7c-1.1,8.6,3.1,16.9,10.6,21.2c5.3,3,10.6,6.2,15.8,9.3L305.1,413.8z"/>
		</g>
	</g>
	<g class="st1">
		<g>
			<path class="st2" d="M241.8,312.5C241.8,312.5,241.8,312.5,241.8,312.5c-16.5-39.8-62.3-58.8-102.1-42.3
				C99.9,286.7,81,332.5,97.4,372.3c8,19.3,23,34.3,42.3,42.3c9.6,4,19.8,6,29.9,6s20.3-2,29.9-6
				C239.3,398.1,258.2,352.3,241.8,312.5z M190.7,393.4c-13.6,5.6-28.6,5.6-42.2,0c-13.6-5.6-24.2-16.2-29.9-29.9
				c-11.6-28.1,1.8-60.5,29.9-72.1c6.9-2.9,14-4.2,21-4.2c21.7,0,42.3,12.8,51.1,34.1C232.2,349.4,218.8,381.7,190.7,393.4z"/>
		</g>
	</g>
	<g class="st1">
		<g>
			<path class="st2" d="M496.6,100.9c-4-0.6-8-1.2-12.1-1.7c-2.1-6.9-4.8-13.5-8.2-19.8c2.5-3.3,5-6.6,7.4-9.8
				c5.3-7.2,4.5-17.3-1.8-23.6L466,30.2c-6.3-6.3-16.5-7.1-23.6-1.8c-3.2,2.4-6.5,4.9-9.8,7.4c-6.3-3.4-13-6.2-19.8-8.2
				c-0.5-4.1-1.1-8.2-1.7-12.1c-1.3-8.8-9-15.4-18-15.4h-22.4c-8.9,0-16.6,6.6-18,15.4c-0.6,4-1.2,8-1.7,12.1
				c-6.9,2.1-13.5,4.8-19.8,8.2c-3.3-2.5-6.5-5-9.8-7.4c-7.2-5.3-17.3-4.5-23.6,1.8L282,46c-6.3,6.3-7.1,16.5-1.8,23.6
				c2.4,3.2,4.9,6.5,7.4,9.8c-3.4,6.3-6.2,13-8.2,19.8c-4.1,0.5-8.2,1.1-12.1,1.7c-8.8,1.3-15.4,9-15.4,18v22.4
				c0,8.9,6.6,16.6,15.4,18c4,0.6,8,1.2,12.1,1.7c2.1,6.9,4.8,13.5,8.2,19.8c-2.5,3.3-5,6.6-7.4,9.8c-5.3,7.2-4.5,17.3,1.8,23.6
				l15.8,15.8c6.3,6.3,16.5,7.1,23.6,1.8c3.2-2.4,6.5-4.9,9.8-7.4c6.3,3.4,13,6.2,19.8,8.2c0.5,4.1,1.1,8.2,1.7,12.1
				c1.3,8.8,9,15.4,18,15.4h22.4c8.9,0,16.6-6.6,18-15.4c0.6-4,1.2-8,1.7-12.1c6.9-2.1,13.5-4.8,19.8-8.2c3.3,2.5,6.5,5,9.8,7.4
				c7.2,5.3,17.3,4.5,23.6-1.8l15.8-15.8c6.3-6.3,7.1-16.5,1.8-23.6c-2.4-3.2-4.9-6.5-7.4-9.8c3.4-6.3,6.2-13,8.2-19.8
				c4.1-0.5,8.2-1.1,12.1-1.7c8.8-1.3,15.4-9,15.4-18v-22.4C512,110,505.4,102.3,496.6,100.9z M490.2,138.1c-3.6,0.5-7.3,1-10.9,1.5
				c-7.3,0.9-13.2,6.1-15.2,13.1c-1.9,6.7-4.6,13.2-8,19.3c-3.6,6.4-3.1,14.2,1.4,20c2.3,2.9,4.5,5.9,6.7,8.8l-11.4,11.4
				c-2.9-2.2-5.9-4.4-8.8-6.7c-5.8-4.5-13.7-5-20-1.4c-6.1,3.5-12.6,6.2-19.3,8c-7,1.9-12.2,7.9-13.1,15.2c-0.5,3.7-1,7.3-1.5,10.9
				h-16.1c-0.5-3.6-1-7.3-1.5-10.9c-0.9-7.3-6.1-13.2-13.1-15.2c-6.7-1.9-13.2-4.6-19.3-8c-6.4-3.6-14.2-3.1-20,1.4
				c-2.9,2.3-5.9,4.5-8.8,6.7L299.6,201c2.2-2.9,4.4-5.9,6.7-8.8c4.5-5.8,5-13.7,1.4-20c-3.5-6.1-6.2-12.6-8-19.3
				c-1.9-7-7.9-12.2-15.2-13.1c-3.7-0.5-7.3-1-10.9-1.5V122c3.6-0.5,7.3-1,10.9-1.5c7.3-0.9,13.2-6.1,15.2-13.1
				c1.9-6.7,4.6-13.2,8-19.3c3.6-6.4,3.1-14.2-1.4-20c-2.3-2.9-4.5-5.9-6.7-8.8L311,47.8c2.9,2.2,5.9,4.4,8.8,6.7
				c5.8,4.5,13.7,5,20,1.4c6.1-3.5,12.6-6.2,19.3-8c7-1.9,12.2-7.9,13.1-15.2c0.5-3.7,1-7.3,1.5-10.9H390c0.5,3.6,1,7.3,1.5,10.9
				c0.9,7.3,6.1,13.2,13.1,15.2c6.7,1.9,13.2,4.6,19.3,8c6.4,3.6,14.2,3,20-1.4c2.9-2.2,5.9-4.5,8.8-6.7l11.4,11.4
				c-2.2,2.9-4.4,5.9-6.7,8.8c-4.5,5.8-5,13.7-1.4,20c3.5,6.1,6.2,12.6,8,19.3c1.9,7,7.9,12.2,15.2,13.2c3.7,0.5,7.3,1,10.9,1.5
				L490.2,138.1L490.2,138.1z"/>
		</g>
	</g>
	<g class="st1">
		<g>
			<path class="st2" d="M381.9,83.7c-25.6,0-46.4,20.8-46.4,46.4c0,25.6,20.8,46.4,46.4,46.4s46.4-20.8,46.4-46.4
				C428.3,104.5,407.5,83.7,381.9,83.7z M381.9,155.9c-14.2,0-25.8-11.6-25.8-25.8s11.6-25.8,25.8-25.8s25.8,11.6,25.8,25.8
				C407.7,144.3,396.1,155.9,381.9,155.9z"/>
		</g>
	</g>
</g>
<g id="Layer_2" class="st0">
	<g class="st1">
		<g>
			<path class="st2" d="M457.3,494l-67.5-142.8c-1.3-2.8-3.7-5-6.5-6.2L349.7,330l58.2-97.5c0.1-0.2,0.3-0.5,0.4-0.7
				c11.6-22.6,17.4-47,17.4-72.5c0-43-16.8-83.2-47.4-113.4C347.7,15.7,307.2-0.6,264.2,0c-41.7,0.6-81.1,17.3-110.7,47.2
				c-29.6,29.9-46.1,69.3-46.3,111.1c-0.2,25.5,5.9,50.9,17.4,73.5c0.1,0.2,0.3,0.5,0.4,0.7l58.2,97.5l-33.8,15
				c-2.8,1.2-5,3.4-6.3,6.1L75.7,494c-2.3,4.8-1.3,10.5,2.4,14.2c3.7,3.8,9.3,4.9,14.2,2.7l84.6-37.6l84.6,37.6
				c3.3,1.5,7,1.5,10.3,0l84.6-37.6l84.6,37.6c1.7,0.7,3.4,1.1,5.1,1.1c3.3,0,6.6-1.3,9-3.8C458.6,504.4,459.5,498.7,457.3,494z
				 M146.9,219.9c-9.7-19.1-14.6-39.8-14.5-61.5C132.9,86,192.2,26.3,264.6,25.3c36.2-0.5,70.3,13.2,96,38.6
				c25.7,25.4,39.9,59.3,39.9,95.4c0,21.4-4.9,41.8-14.5,60.6L277.3,402.1c-3.3,5.6-8.7,6.2-10.8,6.2c-2.2,0-7.5-0.6-10.8-6.2
				L146.9,219.9z M361.3,447.9c-3.3-1.5-7-1.5-10.3,0l-84.6,37.6l-84.6-37.6c-3.3-1.5-7-1.5-10.3,0L113.1,474L164,366.2l32.3-14.4
				l37.7,63.1c6.9,11.6,19.1,18.5,32.5,18.5c13.5,0,25.6-6.9,32.5-18.5l37.7-63.1l32.3,14.4L419.9,474L361.3,447.9z"/>
		</g>
	</g>
	<g class="st1">
		<g>
			<path class="st2" d="M266.5,101.6c-31.8,0-57.7,25.9-57.7,57.7s25.9,57.7,57.7,57.7c31.8,0,57.7-25.9,57.7-57.7
				S298.3,101.6,266.5,101.6z M266.5,191.7c-17.9,0-32.4-14.5-32.4-32.4c0-17.9,14.5-32.4,32.4-32.4c17.9,0,32.4,14.5,32.4,32.4
				S284.3,191.7,266.5,191.7z"/>
		</g>
	</g>
</g>
<g id="Layer_3" class="st0">
	<g class="st1">
		<g>
			<path class="st2" d="M508.9,128.7c0-2.6-1-5.1-2.9-7l-76.8-76.8c0,0,0,0,0,0c-1.8-1.8-4.3-2.9-7.1-2.9H208.6
				c-11.6,0-21.1,9.5-21.1,21.1v386.3c0,11.6,9.5,21.1,21.1,21.1h279.1c11.6,0,21.1-9.5,21.1-21.1V128.8
				C508.9,128.8,508.9,128.8,508.9,128.7z M432.1,76.3l42.6,42.6h-41.5c-0.6,0-1.1-0.5-1.1-1.1L432.1,76.3L432.1,76.3z M488.8,449.5
				c0,0.6-0.5,1.1-1.1,1.1H208.6c-0.6,0-1.1-0.5-1.1-1.1V63.1c0-0.6,0.5-1.1,1.1-1.1H412v55.7c0,11.6,9.5,21.1,21.1,21.1h55.7
				L488.8,449.5L488.8,449.5z"/>
		</g>
	</g>
	<g class="st1">
		<g>
			<path class="st2" d="M437,179.3H259.4c-5.5,0-10,4.5-10,10c0,5.5,4.5,10,10,10H437c5.5,0,10-4.5,10-10
				C447,183.8,442.5,179.3,437,179.3z"/>
		</g>
	</g>
	<g class="st1">
		<g>
			<path class="st2" d="M437,239.8H259.4c-5.5,0-10,4.5-10,10s4.5,10,10,10H437c5.5,0,10-4.5,10-10C447,244.3,442.5,239.8,437,239.8
				z"/>
		</g>
	</g>
	<g class="st1">
		<g>
			<path class="st2" d="M437,300.4H259.4c-5.5,0-10,4.5-10,10c0,5.5,4.5,10,10,10H437c5.5,0,10-4.5,10-10
				C447,304.9,442.5,300.4,437,300.4z"/>
		</g>
	</g>
	<g class="st1">
		<g>
			<path class="st2" d="M348.2,361h-88.8c-5.5,0-10,4.5-10,10c0,5.5,4.5,10,10,10h88.8c5.5,0,10-4.5,10-10S353.7,361,348.2,361z"/>
		</g>
	</g>
	<g class="st1">
		<polygon class="st2" points="103.1,275.2 0,166.1 0,388.6 		"/>
		<polygon class="st2" points="169,325.9 169,145 0,145 0,147.2 		"/>
		<polygon class="st2" points="112.1,284.7 3.6,404 169,404 169,344.8 		"/>
	</g>
</g>
<g id="Layer_4" class="st0">
	<g class="st1">
		<g>
			<path class="st2" d="M346.7,119.7c0-2.6-1-5.1-2.9-7l-76.8-76.8c0,0,0,0,0,0c-1.8-1.8-4.3-2.9-7.1-2.9H46.4
				c-11.6,0-21.1,9.5-21.1,21.1v386.3c0,11.6,9.5,21.1,21.1,21.1h279.1c11.6,0,21.1-9.5,21.1-21.1V119.8
				C346.7,119.8,346.7,119.8,346.7,119.7z M269.9,67.3l42.6,42.6h-41.5c-0.6,0-1.1-0.5-1.1-1.1L269.9,67.3L269.9,67.3z M326.6,440.5
				c0,0.6-0.5,1.1-1.1,1.1H46.4c-0.6,0-1.1-0.5-1.1-1.1V54.1c0-0.6,0.5-1.1,1.1-1.1h203.4v55.7c0,11.6,9.5,21.1,21.1,21.1h55.7
				L326.6,440.5L326.6,440.5z"/>
		</g>
	</g>
	<g class="st1">
		<g>
			<path class="st2" d="M274.8,170.3H97.2c-5.5,0-10,4.5-10,10c0,5.5,4.5,10,10,10h177.6c5.5,0,10-4.5,10-10
				C284.8,174.8,280.3,170.3,274.8,170.3z"/>
		</g>
	</g>
	<g class="st1">
		<g>
			<path class="st2" d="M274.8,230.8H97.2c-5.5,0-10,4.5-10,10s4.5,10,10,10h177.6c5.5,0,10-4.5,10-10
				C284.8,235.3,280.3,230.8,274.8,230.8z"/>
		</g>
	</g>
	<g class="st1">
		<g>
			<path class="st2" d="M274.8,291.4H97.2c-5.5,0-10,4.5-10,10c0,5.5,4.5,10,10,10h177.6c5.5,0,10-4.5,10-10
				C284.8,295.9,280.3,291.4,274.8,291.4z"/>
		</g>
	</g>
	<g class="st1">
		<g>
			<path class="st2" d="M186,352H97.2c-5.5,0-10,4.5-10,10c0,5.5,4.5,10,10,10H186c5.5,0,10-4.5,10-10S191.5,352,186,352z"/>
		</g>
	</g>
	<path class="st3" d="M500.8,258.9l-54.1-58.6c-4.4-5-12.1-5.4-17-0.8c-4.8,4.5-4.9,12.1-0.5,17l37.8,42.4h-183
		c-6.6,0-12.2,5.1-12.3,11.7c-0.1,6.7,5.3,12.2,11.9,12.2h180.7l-41.9,37.3c-4.9,4.4-5.7,12-1.4,17c4.4,5.1,12,5.6,17,1.1l64.7-59.4
		l2.6-2.5c5.3-4.8,4.3-7.8,1.4-11"/>
	<path class="st3" d="M433.5,403.9l-54.1-58.6c-4.4-5-12.1-5.4-17-0.8c-4.8,4.5-4.9,12.1-0.5,17l37.8,42.4l-183,0
		c-6.6,0-12.2,5.1-12.3,11.7c-0.1,6.7,5.3,12.2,11.9,12.2h180.7l-41.9,37.3c-4.9,4.4-5.7,12-1.4,17c4.4,5.1,12,5.6,17,1.1l64.7-59.4
		l2.6-2.5c5.3-4.8,4.3-7.8,1.4-11"/>
</g>
<g id="Layer_5">
	<g>
		<g>
			<g>
				<path class="st2" d="M250.5,501c-135.1,0-245-109.9-245-245s109.9-245,245-245s245,109.9,245,245S385.6,501,250.5,501z
					 M250.5,73c-100.9,0-183,82.1-183,183s82.1,183,183,183s183-82.1,183-183S351.4,73,250.5,73z"/>
			</g>
			<g>
				<g>
					<circle class="st2" cx="246.8" cy="170.2" r="29.1"/>
				</g>
				<g>
					<polygon class="st2" points="290.6,370.9 275.9,370.9 225.1,370.9 210.4,370.9 210.4,332 225.1,332 225.1,265.8 210.6,265.8 
						210.6,226.9 225.1,226.9 268.6,226.9 275.9,226.9 275.9,332 290.6,332 					"/>
				</g>
			</g>
		</g>
	</g>
</g>
<g id="Layer_6">
</g>
<g id="Layer_7">
</g>
<g id="Layer_8">
</g>
<g id="Layer_9">
</g>
<g id="Layer_10">
</g>
<g id="Layer_11">
</g>
</svg>
